<?xml version="1.0" encoding="UTF-8"?>
<svg version="1.1" xmlns="http://www.w3.org/2000/svg" width="778" height="765">
<path d="M0 0 C2.37147837 2.14525181 4.39328401 4.43396208 6.5 6.8359375 C11.8198507 12.32527017 18.32011325 13.69604912 25.45166016 15.60546875 C41.51135887 20.13920446 55.83927283 29.29423933 67.375 41.1484375 C68.05046875 41.82648438 68.7259375 42.50453125 69.421875 43.203125 C73.93664645 48.01754942 81.375 56.36458698 81.375 63.1484375 C80.56226624 63.16683182 79.74953247 63.18522614 78.91217041 63.20417786 C71.20425914 63.38104534 63.49683031 63.57103755 55.78960037 63.77530384 C51.82845198 63.87983645 47.86731218 63.97951939 43.90576172 64.06762695 C40.07337949 64.15304852 36.241543 64.25185157 32.40972137 64.35944176 C30.95722763 64.39796719 29.50460344 64.43189437 28.05188751 64.46085548 C14.10968324 64.74446472 0.93631878 66.20094912 -9.6953125 76.0703125 C-15.3031545 82.12396621 -18.05232728 87.9535461 -17.9375 96.3359375 C-17.92912109 97.01664307 -17.92074219 97.69734863 -17.91210938 98.39868164 C-17.76729324 104.83937915 -17.06022327 111.21166319 -16.34155273 117.60913086 C-15.45940822 125.80410256 -15.43307134 133.91683042 -15.625 142.1484375 C-18.45428932 139.59772436 -20.30393264 136.68222478 -22.3125 133.4609375 C-23.24642578 131.97013672 -23.24642578 131.97013672 -24.19921875 130.44921875 C-24.66972656 129.68996094 -25.14023437 128.93070313 -25.625 128.1484375 C-25.48191406 129.96601563 -25.48191406 129.96601563 -25.3359375 131.8203125 C-23.99035128 151.05599103 -25.83416638 168.73998038 -31.625 187.1484375 C-31.84140137 187.8388916 -32.05780273 188.5293457 -32.28076172 189.24072266 C-39.41059613 211.31281289 -52.76852987 231.39032495 -68.625 248.1484375 C-69.69265617 249.39403637 -70.75527688 250.64397127 -71.8125 251.8984375 C-80.56341003 261.90817914 -90.17389394 270.9459456 -100.625 279.1484375 C-101.76648656 280.08852481 -102.90568141 281.03139943 -104.04296875 281.9765625 C-136.94912519 309.1484375 -136.94912519 309.1484375 -147.625 309.1484375 C-148.285 320.0384375 -148.945 330.9284375 -149.625 342.1484375 C-147.975 342.8084375 -146.325 343.4684375 -144.625 344.1484375 C-142.85839844 345.21069336 -142.85839844 345.21069336 -141.234375 346.36328125 C-140.61602783 346.79672852 -139.99768066 347.23017578 -139.3605957 347.67675781 C-138.70534912 348.14178711 -138.05010254 348.60681641 -137.375 349.0859375 C-131.61355929 353.10377552 -125.82028975 357.06004542 -119.9375 360.8984375 C-119.29844727 361.32116943 -118.65939453 361.74390137 -118.00097656 362.17944336 C-116.66624967 363.04581278 -115.31854378 363.89242036 -113.96044922 364.72167969 C-112.24019169 365.7726085 -110.54742388 366.86885991 -108.87158203 367.98925781 C-99.29913562 373.8955645 -90.87702609 374.25404821 -79.875 374.3984375 C-54.96865587 374.93849227 -54.96865587 374.93849227 -46.2890625 383.203125 C-41.878266 388.35940823 -41.135536 394.04045181 -41.3203125 400.671875 C-41.79163653 404.50289337 -43.06092615 407.62927134 -44.625 411.1484375 C-47.625 410.1484375 -47.625 410.1484375 -48.984375 407.85546875 C-49.44328125 406.90027344 -49.9021875 405.94507813 -50.375 404.9609375 C-54.51621646 397.07728838 -59.3496694 393.18835486 -67.625 390.1484375 C-67.21507812 390.67953125 -66.80515625 391.210625 -66.3828125 391.7578125 C-65.84398437 392.46421875 -65.30515625 393.170625 -64.75 393.8984375 C-64.21632813 394.59453125 -63.68265625 395.290625 -63.1328125 396.0078125 C-58.83148578 402.11435925 -58.66967101 407.79726185 -59.625 415.1484375 C-63.64969136 426.16078318 -63.64969136 426.16078318 -67.625 428.1484375 C-67.8725 426.8696875 -68.12 425.5909375 -68.375 424.2734375 C-69.95992288 417.19709166 -72.14567654 409.17115067 -77.625 404.1484375 C-84.98664951 400.47818344 -92.1056009 400.75994662 -100.1875 400.85546875 C-101.58853702 400.86107363 -102.98957997 400.86533951 -104.390625 400.86833191 C-108.05349354 400.87971069 -111.71599734 400.90911632 -115.37872314 400.94244385 C-119.12612985 400.97329634 -122.87359627 400.98686946 -126.62109375 401.00195312 C-133.95589428 401.03399402 -141.29039577 401.08510416 -148.625 401.1484375 C-147.18509132 397.25333556 -146.14693301 395.38126335 -142.6875 393.0234375 C-139.78925619 391.036778 -139.78925619 391.036778 -137.23876953 388.64575195 C-135.44472245 386.98116939 -134.16225829 386.45146595 -131.83203125 385.76171875 C-131.11982422 385.54580078 -130.40761719 385.32988281 -129.67382812 385.10742188 C-128.93583984 384.89408203 -128.19785156 384.68074219 -127.4375 384.4609375 C-126.68791016 384.23599609 -125.93832031 384.01105469 -125.16601562 383.77929688 C-123.32154721 383.22713117 -121.4735924 382.68663529 -119.625 382.1484375 C-137.11783256 370.14295796 -156.42188394 361.16843999 -175.39697266 351.78051758 C-177.09152588 350.93976685 -177.09152588 350.93976685 -178.8203125 350.08203125 C-179.82078613 349.58759521 -180.82125977 349.09315918 -181.85205078 348.58374023 C-182.76712402 348.11009033 -183.68219727 347.63644043 -184.625 347.1484375 C-185.5545752 346.67889648 -186.48415039 346.20935547 -187.44189453 345.72558594 C-189.625 344.1484375 -189.625 344.1484375 -190.30371094 342.19067383 C-190.33126465 341.09662231 -190.33126465 341.09662231 -190.359375 339.98046875 C-190.38040283 339.17351562 -190.40143066 338.3665625 -190.4230957 337.53515625 C-190.39928833 336.26091797 -190.39928833 336.26091797 -190.375 334.9609375 C-190.36106201 334.0946875 -190.34712402 333.2284375 -190.33276367 332.3359375 C-190.12641232 327.83124052 -189.94947943 324.21624356 -186.9375 320.6484375 C-185.54455956 319.42891535 -184.09963551 318.26779779 -182.625 317.1484375 C-181.14653639 315.86737094 -179.66824313 314.5861032 -178.19262695 313.30175781 C-175.96159543 311.38113939 -173.69048447 309.5108719 -171.42041016 307.63671875 C-163.54006986 301.104416 -155.6994826 294.55980022 -148.625 287.1484375 C-157.43039333 292.68373204 -166.08592329 298.43154977 -174.71289062 304.23901367 C-197.18975011 319.35951814 -197.18975011 319.35951814 -208.875 324.8984375 C-209.66495361 325.27476318 -210.45490723 325.65108887 -211.26879883 326.03881836 C-219.12936211 329.63085569 -227.15287405 331.59720317 -235.625 333.1484375 C-231.62867876 325.58031267 -227.3080439 318.31155495 -222.625 311.1484375 C-227.15086973 314.38826774 -230.09199589 318.13275768 -233.3125 322.5859375 C-239.43308347 330.966473 -239.43308347 330.966473 -242.69921875 334.9140625 C-243.40848511 335.78333374 -243.40848511 335.78333374 -244.13208008 336.67016602 C-245.42853473 338.24891135 -246.74116724 339.8143309 -248.0546875 341.37890625 C-249.93927259 344.00698336 -249.93927259 344.00698336 -249.13671875 346.72265625 C-247.4861983 349.37116581 -245.71044846 351.5080527 -243.5625 353.7734375 C-240.34462003 357.23687906 -237.30491715 360.75115331 -234.375 364.4609375 C-230.75753056 368.92545524 -226.91788692 373.07305699 -222.875 377.1484375 C-222.06047363 377.97661987 -222.06047363 377.97661987 -221.22949219 378.8215332 C-213.11949704 386.87046662 -205.87997322 387.30786421 -194.92578125 387.66601562 C-184.83547115 388.09384477 -177.98764133 389.88650634 -169.8125 395.9609375 C-169.07580078 396.48236328 -168.33910156 397.00378906 -167.58007812 397.54101562 C-158.70708561 403.96131102 -158.70708561 403.96131102 -156.91015625 409.25390625 C-155.90050765 418.69500628 -159.02556226 426.62473478 -164.625 434.1484375 C-166.75 436.6484375 -166.75 436.6484375 -168.625 438.1484375 C-169.615 438.1484375 -170.605 438.1484375 -171.625 438.1484375 C-171.59019531 437.02566406 -171.55539062 435.90289062 -171.51953125 434.74609375 C-170.70386303 422.87396298 -170.70386303 422.87396298 -174.625 412.1484375 C-179.13201225 408.90492954 -183.05288772 407.1484375 -188.625 407.1484375 C-188.21507812 407.66792969 -187.80515625 408.18742187 -187.3828125 408.72265625 C-182.17324142 415.46518725 -179.53863479 420.48501873 -180.625 429.1484375 C-182.48703134 436.35126533 -186.05185933 442.19597143 -191.625 447.1484375 C-192.615 447.4784375 -193.605 447.8084375 -194.625 448.1484375 C-194.66238281 447.19324219 -194.69976562 446.23804688 -194.73828125 445.25390625 C-195.35619855 429.24485449 -195.35619855 429.24485449 -203.625 416.1484375 C-213.5215879 409.16261074 -226.30904536 408.82059859 -237.9765625 410.68359375 C-247.81442871 412.9172532 -254.59950777 418.12294527 -261.625 425.1484375 C-263.89525338 420.60793074 -263.18626891 414.5224533 -262.046875 409.703125 C-259.16959644 402.19604367 -253.07556328 396.49821238 -245.8125 393.1484375 C-242.625 392.1484375 -242.625 392.1484375 -238.625 392.1484375 C-243.62344956 385.49455288 -248.90674468 379.19416156 -254.625 373.1484375 C-255.18864258 372.5507959 -255.75228516 371.9531543 -256.33300781 371.33740234 C-264.21874482 363.04435276 -272.09188515 355.44170867 -281.74829102 349.21728516 C-283.5869857 347.96309306 -285.14295653 346.80880016 -286.625 345.1484375 C-287.73843157 339.21501929 -285.59937013 333.10988969 -284.125 327.3359375 C-283.65441873 325.45488426 -283.18557905 323.5733942 -282.71875 321.69140625 C-282.40454102 320.4542688 -282.40454102 320.4542688 -282.08398438 319.19213867 C-281.55195778 317.17230663 -281.55195778 317.17230663 -281.625 315.1484375 C-305.24151751 327.04370986 -325.29220219 340.81002921 -344.40956116 359.06521606 C-346.94383402 361.4482435 -349.52190389 363.77947626 -352.09936523 366.11572266 C-358.58480044 372.03511153 -364.80373641 378.19875041 -370.99609375 384.421875 C-372.13259552 385.56024982 -373.26932418 386.69839817 -374.40626526 387.83633423 C-377.36066869 390.79450473 -380.31205728 393.75566439 -383.26275635 396.7175293 C-386.26902975 399.7340999 -389.27819099 402.74778681 -392.28710938 405.76171875 C-397.57046443 411.05457051 -402.85134144 416.34988324 -408.13035583 421.64706421 C-408.95358841 422.4725174 -409.77682098 423.29797058 -410.625 424.1484375 C-411.5182045 425.04503082 -412.411409 425.94162415 -413.3316803 426.86538696 C-415.21626845 428.74153619 -417.11317808 430.53681764 -419.125 432.2734375 C-419.6715625 432.75039063 -420.218125 433.22734375 -420.78125 433.71875 C-425.47193376 437.35601749 -429.98143229 438.98877803 -435.75 440.2109375 C-436.94459839 440.46580933 -436.94459839 440.46580933 -438.16333008 440.72583008 C-451.49282031 443.44925609 -464.87326376 444.2827017 -478.44888306 444.81729126 C-480.44101228 444.89610383 -482.4327984 444.98344456 -484.42456055 445.07104492 C-506.86315935 445.80144377 -506.86315935 445.80144377 -514.625 439.1484375 C-514.12466052 435.16600569 -513.38923366 433.45310463 -510.25 430.9609375 C-506.83820386 428.15730467 -503.55425695 425.2733417 -500.3125 422.2734375 C-495.83052877 418.1860277 -491.225815 414.30678808 -486.5078125 410.49609375 C-483.34484415 407.9202889 -480.23169619 405.29152958 -477.125 402.6484375 C-473.1000468 399.22482547 -469.04472718 395.84861155 -464.9375 392.5234375 C-460.48596192 388.90009255 -456.20117545 385.12879878 -451.95703125 381.265625 C-449.22943055 378.7893108 -446.45538445 376.37065564 -443.67578125 373.953125 C-441.36411203 371.91885609 -439.0896857 369.8462144 -436.8125 367.7734375 C-433.34969918 364.64420923 -429.81820997 361.64343401 -426.1875 358.7109375 C-421.52841782 354.94304404 -417.09486476 350.99038896 -412.71875 346.8984375 C-408.19965261 342.77691466 -403.37535561 338.99735758 -398.625 335.1484375 C-399.19224289 335.3105069 -399.75948578 335.47257629 -400.34391785 335.63955688 C-409.68305461 338.30788167 -419.02219137 340.97620646 -428.36132812 343.64453125 C-429.97130173 344.1045755 -429.97130173 344.1045755 -431.61380005 344.57391357 C-433.77524574 345.19139972 -435.93676516 345.80862784 -438.09835815 346.42559814 C-443.31683767 347.91540511 -448.53410326 349.40916792 -453.74853516 350.91308594 C-454.7079451 351.18913666 -455.66735504 351.46518738 -456.65583801 351.74960327 C-458.44837784 352.26554934 -460.24047255 352.78304547 -462.0320282 353.30239868 C-467.72947602 354.94010084 -472.96824736 356.29052754 -478.9375 356.2109375 C-479.82050781 356.20191406 -480.70351563 356.19289063 -481.61328125 356.18359375 C-482.60908203 356.16619141 -482.60908203 356.16619141 -483.625 356.1484375 C-483.2356149 351.13278661 -480.59820209 348.42348863 -477.25 344.9609375 C-476.71125244 344.39213867 -476.17250488 343.82333984 -475.61743164 343.23730469 C-468.11602585 335.40765064 -460.00418366 328.36900519 -451.57421875 321.5625 C-448.2113153 318.80981877 -444.91570431 315.98661981 -441.625 313.1484375 C-437.50048294 309.59372205 -433.35291495 306.08050964 -429.125 302.6484375 C-425.53481386 299.73305874 -421.99144097 296.77293414 -418.48657227 293.75610352 C-417.28466618 292.72382456 -416.07807936 291.69697124 -414.86694336 290.67553711 C-412.07592857 288.31350254 -409.43536004 285.95448754 -406.875 283.3359375 C-398.95645923 275.60154884 -391.22906362 274.29325617 -380.609375 272.33203125 C-371.29079198 270.58740864 -362.49791641 267.43048825 -353.625 264.1484375 C-352.5721582 263.75914062 -351.51931641 263.36984375 -350.43457031 262.96875 C-310.85127539 248.16953843 -270.03623536 230.34399034 -239.625 200.1484375 C-239.625 199.8184375 -239.625 199.4884375 -239.625 199.1484375 C-240.10517578 199.47416748 -240.58535156 199.79989746 -241.08007812 200.13549805 C-264.68441356 216.04843961 -289.78023578 228.3930943 -315.625 240.1484375 C-316.36609009 240.48633301 -317.10718018 240.82422852 -317.87072754 241.17236328 C-345.24461956 253.64876942 -372.49232587 265.34088083 -401.625 273.1484375 C-402.46998047 273.37821289 -403.31496094 273.60798828 -404.18554688 273.84472656 C-417.19714304 277.36236598 -417.19714304 277.36236598 -419.625 276.1484375 C-407.24938862 263.74942003 -394.87088136 251.3533019 -382.48896027 238.96058559 C-376.73932059 233.20579931 -370.99061677 227.45008406 -365.24414062 221.69213867 C-360.23294123 216.67094236 -355.21996034 211.65153253 -350.20487165 206.63422066 C-347.55183669 203.97988707 -344.89967547 201.32469402 -342.24964905 198.66735649 C-339.75008682 196.1609549 -337.24813071 193.6569672 -334.74440002 191.15472984 C-333.39879638 189.80872435 -332.05566969 188.46024404 -330.71264648 187.11166382 C-326.39022073 182.79649527 -322.00933405 178.62456208 -317.35979462 174.66236973 C-314.46750732 172.13830901 -311.80649214 169.39239575 -309.125 166.6484375 C-305.17150663 162.65038978 -301.19346006 158.78245438 -296.90234375 155.14453125 C-293.62562317 152.27248285 -290.48124645 149.26359115 -287.3125 146.2734375 C-282.08093402 141.351359 -276.76012811 136.687998 -271.14453125 132.20703125 C-268.67190549 130.18676183 -266.3383937 128.07176811 -264 125.8984375 C-258.3455024 120.75230956 -252.27510488 116.20496925 -246.1796875 111.6015625 C-241.6621022 108.18965281 -237.20525513 104.70358026 -232.75 101.2109375 C-226.60503262 96.40232548 -220.3707529 91.74022447 -214.0625 87.1484375 C-201.49812995 77.97098459 -189.54487677 68.14161497 -178.1796875 57.515625 C-176.06074957 55.55220545 -173.90472678 53.68515983 -171.6875 51.8359375 C-162.88221528 44.1863464 -155.21975924 35.06195219 -147.9296875 25.99609375 C-128.12735634 1.52846763 -107.34228926 -16.95911544 -74.75268555 -20.6706543 C-47.70903514 -22.97006278 -21.37670447 -17.43537459 0 0 Z M-10.625 41.1484375 C-10.625 42.4684375 -10.625 43.7884375 -10.625 45.1484375 C-9.46790527 45.24866211 -8.31081055 45.34888672 -7.11865234 45.45214844 C34.28471587 49.06938001 34.28471587 49.06938001 51.08154297 52.67285156 C55.49541757 53.58814087 59.93725625 54.35855959 64.375 55.1484375 C44.19006 39.50877455 13.56192709 40.6715868 -10.625 41.1484375 Z M-140.625 80.1484375 C-140.625 80.4784375 -140.625 80.8084375 -140.625 81.1484375 C-139.88378906 81.344375 -139.14257812 81.5403125 -138.37890625 81.7421875 C-124.49674728 85.68424488 -111.29526419 91.22215503 -100.625 101.1484375 C-99.93277344 101.75042969 -99.24054688 102.35242188 -98.52734375 102.97265625 C-81.91333053 118.24218285 -76.7961976 141.46108889 -75.625 163.1484375 C-75.295 163.1484375 -74.965 163.1484375 -74.625 163.1484375 C-72.27200819 144.03755284 -71.81157631 123.47513163 -83.625 107.1484375 C-95.84970994 92.33184415 -114.74079295 83.14593068 -133.625 80.1484375 C-135.98775589 80.02500995 -138.25707144 80.04767458 -140.625 80.1484375 Z M-243.375 130.3984375 C-244.03056885 130.88151367 -244.6861377 131.36458984 -245.36157227 131.86230469 C-249.38941606 134.93083801 -252.52180234 138.14507563 -255.625 142.1484375 C-251.50588543 140.66310623 -247.94308114 138.58390231 -244.25 136.2734375 C-215.65182677 118.84665194 -181.53877143 101.81301405 -147 109.2109375 C-138.11256419 111.94064993 -130.52679102 116.65036382 -125.7734375 124.76953125 C-120.04464031 136.63632543 -120.66918407 147.78849858 -124.625 160.1484375 C-130.08361843 175.70450029 -140.21543418 190.74802621 -152.4453125 201.87890625 C-153.85190347 203.10378437 -153.85190347 203.10378437 -153.625 205.1484375 C-154.20894531 205.39980469 -154.79289063 205.65117187 -155.39453125 205.91015625 C-157.90958924 207.30643188 -159.3725743 208.84000453 -161.3125 210.9609375 C-165.58748562 215.34208998 -170.19188235 219.07082597 -175.0625 222.7734375 C-175.7536792 223.2991333 -176.4448584 223.8248291 -177.15698242 224.36645508 C-222.43871037 258.41903417 -275.19816036 282.44967567 -327.08398438 304.62255859 C-330.64447971 306.15683161 -334.1912781 307.71896707 -337.734375 309.29296875 C-338.86544678 309.79530029 -339.99651855 310.29763184 -341.16186523 310.81518555 C-343.26693859 311.75232523 -345.37073051 312.69235164 -347.47290039 313.63598633 C-353.11541376 316.14285996 -358.73390354 318.29573913 -364.625 320.1484375 C-360.58052335 321.80764442 -357.25717885 320.35115505 -353.34375 319.0078125 C-352.26808273 318.65134392 -352.26808273 318.65134392 -351.17068481 318.28767395 C-348.81792419 317.50318357 -346.47131766 316.70197704 -344.125 315.8984375 C-343.31778503 315.62522675 -342.51057007 315.35201599 -341.67889404 315.07052612 C-307.08978245 303.3597938 -273.64815496 288.9157751 -240.91992188 272.76806641 C-237.88692349 271.27718679 -234.84428218 269.8087923 -231.796875 268.34765625 C-201.53691717 253.71546252 -172.98794451 235.38285324 -148.625 212.1484375 C-147.69945312 211.28734375 -146.77390625 210.42625 -145.8203125 209.5390625 C-127.27686134 191.78357669 -112.70155273 168.27453415 -111.625 142.1484375 C-112.01170516 131.03378281 -115.70969054 120.95080205 -123.375 112.7734375 C-136.38243706 100.85614755 -151.14771517 98.46538592 -168.20703125 99.0078125 C-195.81143485 100.61323823 -221.53606774 114.22294557 -243.375 130.3984375 Z M-273.625 180.1484375 C-294.56673305 191.20306953 -314.71315323 202.97370592 -333.87451172 216.91064453 C-335.58376375 218.11927881 -337.32968835 219.2430001 -339.09765625 220.36328125 C-339.93167969 220.95238281 -340.76570312 221.54148438 -341.625 222.1484375 C-341.625 222.8084375 -341.625 223.4684375 -341.625 224.1484375 C-335.10710236 223.01954873 -329.73295148 221.05703059 -323.9375 217.8984375 C-323.13078857 217.46442627 -322.32407715 217.03041504 -321.49291992 216.58325195 C-304.11822803 207.06676121 -286.59555286 196.36869676 -272.625 182.1484375 C-273.12 181.1584375 -273.12 181.1584375 -273.625 180.1484375 Z M-200.625 203.1484375 C-201.61113281 203.87804687 -202.59726562 204.60765625 -203.61328125 205.359375 C-245.63386141 236.20164536 -289.36409378 261.26513986 -337.87860107 280.31518555 C-344.18105919 282.79069143 -350.4790533 285.27747707 -356.7734375 287.7734375 C-357.45139311 288.04217367 -358.12934872 288.31090984 -358.82784843 288.58778954 C-384.6697521 298.85020665 -410.78943006 309.73142899 -434.625 324.1484375 C-430.4386082 325.54390143 -427.61796456 323.95195677 -423.6640625 322.45703125 C-422.85934509 322.16100006 -422.05462769 321.86496887 -421.2255249 321.55996704 C-418.56350258 320.57783738 -415.90674735 319.58223991 -413.25 318.5859375 C-411.38645348 317.89384908 -409.52268094 317.20236898 -407.65869141 316.51147461 C-402.88600116 314.73945747 -398.11792923 312.95532905 -393.35083008 311.16833496 C-390.018446 309.92148906 -386.68258011 308.68416559 -383.34651184 307.44721985 C-281.16250027 272.29422606 -281.16250027 272.29422606 -199.625 205.1484375 C-199.955 204.4884375 -200.285 203.8284375 -200.625 203.1484375 Z M-145.625 283.1484375 C-145.955 283.8084375 -146.285 284.4684375 -146.625 285.1484375 C-145.965 285.1484375 -145.305 285.1484375 -144.625 285.1484375 C-144.955 284.4884375 -145.285 283.8284375 -145.625 283.1484375 Z M-379.625 350.6484375 C-383.64408201 354.30156476 -387.78319811 357.72570216 -392.0390625 361.09765625 C-411.69891437 376.68892851 -430.05735074 393.39385936 -447.70898438 411.21655273 C-449.67551299 413.19936886 -451.64907687 415.17498703 -453.625 417.1484375 C-448.52887173 415.45989999 -444.35036214 412.50056433 -439.9375 409.5234375 C-439.133125 408.98291748 -438.32875 408.44239746 -437.5 407.88549805 C-423.03742355 398.07974271 -410.58831414 386.28448368 -398.29223633 373.94604492 C-396.43357892 372.08200506 -394.56960386 370.22340238 -392.70507812 368.36523438 C-382.45113632 358.36664831 -382.45113632 358.36664831 -373.625 347.1484375 C-376.56744127 347.1484375 -377.49222106 348.66799992 -379.625 350.6484375 Z " fill="#101721" transform="translate(557.625,29.8515625)"/>
<path d="M0 0 C0.92176529 -0.00570007 1.84353058 -0.01140015 2.79322815 -0.01727295 C4.73201366 -0.02666745 6.67081474 -0.03323467 8.60961914 -0.03710938 C11.55448435 -0.04683562 14.4986568 -0.07792028 17.44335938 -0.109375 C19.33723549 -0.11590474 21.23111653 -0.12115533 23.125 -0.125 C23.99402451 -0.1373468 24.86304901 -0.1496936 25.75840759 -0.16241455 C32.90940545 -0.13669418 40.4646626 1.04772515 46.00390625 5.953125 C46.53757812 6.40171875 47.07125 6.8503125 47.62109375 7.3125 C51.89320746 12.66924362 52.56184013 17.94913189 52.421875 24.54296875 C52.41763016 25.30992569 52.41338531 26.07688263 52.40901184 26.86708069 C52.39235695 29.29196832 52.35473178 31.71599298 52.31640625 34.140625 C52.30134226 35.79490978 52.28765687 37.44920773 52.27539062 39.10351562 C52.24249702 43.13704603 52.19080874 47.16993973 52.12890625 51.203125 C53.00933594 51.09613281 53.88976562 50.98914063 54.796875 50.87890625 C55.95832031 50.75902344 57.11976563 50.63914062 58.31640625 50.515625 C59.46496094 50.38800781 60.61351562 50.26039063 61.796875 50.12890625 C65.54706701 50.21243925 67.21509734 50.8882657 70.12890625 53.203125 C70.69140625 55.703125 70.69140625 55.703125 70.12890625 58.203125 C67.6479473 60.78209714 66.28661331 61.18974488 62.67578125 61.49609375 C59.16015625 61.3984375 55.64453125 61.30078125 52.12890625 61.203125 C52.12890625 66.813125 52.12890625 72.423125 52.12890625 78.203125 C55.09114583 78.13802083 58.05338542 78.07291667 61.015625 78.0078125 C64.38288568 78.21905846 67.65011392 78.72433267 70.12890625 81.203125 C70.40842678 83.85857005 70.5338542 85.55673639 69.09375 87.85546875 C66.07249239 89.92770309 62.96095644 89.51781054 59.44140625 89.390625 C57.02828125 89.32875 54.61515625 89.266875 52.12890625 89.203125 C52.12890625 94.813125 52.12890625 100.423125 52.12890625 106.203125 C55.09114583 106.13802083 58.05338542 106.07291667 61.015625 106.0078125 C64.38288568 106.21905846 67.65011392 106.72433267 70.12890625 109.203125 C70.37890625 112.140625 70.37890625 112.140625 70.12890625 115.203125 C66.44803272 117.65704069 63.68535037 117.43115259 59.44140625 117.328125 C58.73951172 117.31910156 58.03761719 117.31007813 57.31445312 117.30078125 C55.585791 117.27726204 53.8573048 117.24139213 52.12890625 117.203125 C52.15247192 118.73066406 52.15247192 118.73066406 52.17651367 120.2890625 C52.23116729 124.09838833 52.26538399 127.90768009 52.29370117 131.71728516 C52.30870761 133.36024826 52.32911937 135.00317186 52.35522461 136.64599609 C52.39196984 139.01930542 52.40871397 141.39208125 52.421875 143.765625 C52.43735886 144.48991699 52.45284271 145.21420898 52.46879578 145.96044922 C52.47096024 152.64814654 50.65497905 157.8691313 47.00390625 163.453125 C39.57711959 170.55700789 31.44164226 170.78490429 21.56616211 170.72070312 C20.21821846 170.72613347 18.87028075 170.73326123 17.52235413 170.74194336 C13.88595221 170.76006987 10.25000778 170.75315442 6.61359859 170.74042702 C2.79500461 170.73024563 -1.02355219 170.73970668 -4.84214783 170.74597168 C-11.25168842 170.75323234 -17.66104416 170.74370121 -24.07055664 170.72460938 C-31.46601254 170.70283423 -38.86102739 170.70990279 -46.25647265 170.731915 C-52.62364366 170.75010319 -58.99068239 170.75261096 -65.357871 170.74216032 C-69.15308859 170.73594529 -72.94809925 170.73503471 -76.7433033 170.74830627 C-80.31156874 170.75991461 -83.87926876 170.75174947 -87.44747353 170.72872925 C-89.37099061 170.72097232 -91.29455588 170.7327548 -93.2180481 170.74523926 C-101.14508104 170.66810359 -106.71819614 169.78680305 -112.89453125 164.45703125 C-113.34054687 163.89886719 -113.7865625 163.34070313 -114.24609375 162.765625 C-114.70757812 162.21003906 -115.1690625 161.65445313 -115.64453125 161.08203125 C-118.34670096 156.94272032 -119.122167 153.30768557 -119.13851929 148.4032135 C-119.14704926 147.24385788 -119.15557922 146.08450226 -119.16436768 144.89001465 C-119.1634613 143.62701538 -119.16255493 142.36401611 -119.16162109 141.06274414 C-119.16760887 139.71214935 -119.174415 138.36155797 -119.18197632 137.01097107 C-119.1996161 133.34980565 -119.20433078 129.68873376 -119.20560789 126.02752995 C-119.20703095 123.73876111 -119.21130343 121.45001593 -119.21660233 119.16125298 C-119.23509439 111.1726722 -119.24327378 103.18415811 -119.24169922 95.19555664 C-119.24049734 87.75473093 -119.26161066 80.31419507 -119.29318655 72.87344271 C-119.31935221 66.47923199 -119.33006643 60.08511594 -119.3287884 53.69085211 C-119.32827894 49.87436979 -119.33395326 46.05814526 -119.3551445 42.24171638 C-119.3745326 38.65221682 -119.374648 35.06322088 -119.36011124 31.47370338 C-119.35702909 29.53303204 -119.37369476 27.59236062 -119.39099121 25.65176392 C-119.31418875 15.01185699 -119.31418875 15.01185699 -114.87109375 10.203125 C-108.13410555 4.77610673 -97.430946 5.62909896 -89.22265625 6.4765625 C-83.367262 7.40850213 -80.02099357 8.94401729 -75.87109375 13.203125 C-75.87109375 13.533125 -75.87109375 13.863125 -75.87109375 14.203125 C-81.63208678 15.37301949 -87.39015325 15.53516541 -93.24609375 15.765625 C-94.77943359 15.83040039 -94.77943359 15.83040039 -96.34375 15.89648438 C-98.85274663 16.00200292 -101.36183318 16.10411713 -103.87109375 16.203125 C-103.94112662 33.88348666 -103.9940538 51.56381241 -104.02653027 69.24428272 C-104.04200942 77.45334823 -104.06311886 85.66232764 -104.09741211 93.87133789 C-104.1272825 101.02501837 -104.14666113 108.1786365 -104.15335923 115.33237761 C-104.15727553 119.12142667 -104.16650087 122.91029735 -104.18828392 126.69928932 C-104.20861194 130.2639947 -104.21493512 133.82844781 -104.21041679 137.39320564 C-104.21163859 139.3285455 -104.22780001 141.26385775 -104.24435425 143.1991272 C-104.24023026 144.34757614 -104.23610626 145.49602509 -104.2318573 146.67927551 C-104.23462268 147.6794209 -104.23738806 148.67956629 -104.24023724 149.71001911 C-104.04700531 152.209031 -104.04700531 152.209031 -102.68735886 154.02413559 C-100.18726477 155.64701787 -98.42383033 155.58343322 -95.4500885 155.59080505 C-94.3242485 155.60070969 -93.19840851 155.61061432 -92.03845215 155.62081909 C-90.18455872 155.61406662 -90.18455872 155.61406662 -88.29321289 155.60717773 C-86.99222153 155.61404099 -85.69123016 155.62090424 -84.35081482 155.62797546 C-80.78051861 155.64594214 -77.21046769 155.64473194 -73.64013982 155.63903308 C-70.66043968 155.63594608 -67.680787 155.64202824 -64.70109361 155.64807183 C-57.67186418 155.66212712 -50.64275626 155.66054763 -43.61352539 155.64916992 C-36.36013548 155.63768886 -29.10711531 155.65176159 -21.85377413 155.6785664 C-15.62777381 155.70071379 -9.40188964 155.70736294 -3.17585272 155.70148998 C0.54333094 155.6981167 4.26227759 155.70055968 7.98142815 155.71774101 C12.12840104 155.73606194 16.27465327 155.72203311 20.42163086 155.70483398 C22.27248795 155.71933594 22.27248795 155.71933594 24.16073608 155.73413086 C25.2893959 155.72429672 26.41805573 155.71446259 27.58091736 155.70433044 C28.56149581 155.70412116 29.54207426 155.70391188 30.55236721 155.70369625 C33.94320958 155.04492176 35.10622186 153.97757578 37.12890625 151.203125 C37.72351236 148.61153922 37.72351236 148.61153922 37.63011169 145.73106384 C37.6448629 144.06331657 37.6448629 144.06331657 37.65991211 142.36187744 C37.64541016 140.53907257 37.64541016 140.53907257 37.63061523 138.67944336 C37.63601822 137.39620682 37.6414212 136.11297028 37.64698792 134.79084778 C37.66094678 131.27429437 37.64977087 127.75822998 37.6332767 124.24170375 C37.61942601 120.56221937 37.62588618 116.88276337 37.62940979 113.20326233 C37.63211157 107.02532061 37.61863807 100.84757322 37.59545898 94.66967773 C37.56883754 87.52478431 37.56710592 80.38021555 37.57884735 73.23528951 C37.58962131 66.36349322 37.58344187 59.4918145 37.56929207 52.62002754 C37.56353009 49.69462877 37.56361655 46.76931598 37.56835747 43.84391594 C37.57400988 39.76156767 37.55482254 35.67970563 37.53295898 31.59741211 C37.53746063 30.38018463 37.54196228 29.16295715 37.54660034 27.90884399 C37.53669571 26.79983231 37.52679108 25.69082062 37.5165863 24.54820251 C37.51415641 23.58274978 37.51172651 22.61729704 37.50922298 21.62258816 C37.06261282 18.78138571 36.4272256 17.88346001 34.12890625 16.203125 C31.60984149 15.73035822 31.60984149 15.73035822 28.73950195 15.77075195 C27.63858719 15.75095779 26.53767242 15.73116364 25.40339661 15.71076965 C24.2158226 15.70437973 23.0282486 15.69798981 21.8046875 15.69140625 C20.58814987 15.67345505 19.37161224 15.65550385 18.11820984 15.63700867 C14.22597742 15.58275103 10.33386871 15.5489595 6.44140625 15.515625 C3.80532127 15.48246568 1.16925264 15.44797734 -1.46679688 15.41210938 C-7.93478491 15.32701554 -14.40278866 15.25873113 -20.87109375 15.203125 C-20.935281 5.99091758 -20.935281 5.99091758 -17.87109375 1.203125 C-11.95238307 0.05142933 -6.01564011 0.02935052 0 0 Z " fill="#101721" transform="translate(427.87109375,442.796875)"/>
<path d="M0 0 C2.63598864 -0.05837214 5.2712235 -0.09466709 7.90771484 -0.12109375 C8.71942139 -0.13422607 9.53112793 -0.1473584 10.36743164 -0.16088867 C19.3451671 -0.1728406 27.3353184 1.24490986 34.40771484 7.06640625 C39.23245075 13.03384277 40.64977798 18.71167363 40.71411133 26.29003906 C40.72243484 26.98686295 40.73075836 27.68368683 40.73933411 28.40162659 C40.76330448 30.69098608 40.77219095 32.98005981 40.77880859 35.26953125 C40.78778612 36.87367837 40.79690815 38.47782469 40.8061676 40.08197021 C40.82262591 43.4408979 40.8303517 46.7997263 40.83325195 50.15869141 C40.83862674 54.44016946 40.87628206 58.72070003 40.92199612 63.00191116 C40.95190053 66.31530063 40.95897842 69.62846583 40.9599781 72.94197845 C40.96415538 74.51909465 40.9764884 76.09621307 40.99749565 77.67319489 C41.11675536 87.40136196 40.76799247 95.9788612 34.00022888 103.66485596 C28.30162737 108.86461134 22.16411482 110.42723156 14.67333984 110.6484375 C13.95466736 110.67113205 13.23599487 110.6938266 12.49554443 110.71720886 C10.98305304 110.76153415 9.47034561 110.79897647 7.95751953 110.82983398 C5.67691645 110.87849653 3.39838237 110.95417577 1.11865234 111.03320312 C-20.91058627 111.67624017 -20.91058627 111.67624017 -28.59228516 105.06640625 C-35.3594436 98.51593022 -37.72104205 92.1682947 -37.99633789 82.78344727 C-38.03406411 79.8787868 -38.03335337 76.97516566 -38.02587891 74.0703125 C-38.03044773 72.51146723 -38.03575537 70.95262396 -38.04176331 69.39378357 C-38.05066573 66.13670639 -38.04830423 62.87987477 -38.03833008 59.62280273 C-38.02684358 55.46916199 -38.04706093 51.31637185 -38.07624722 47.16284275 C-38.09467974 43.94641321 -38.09430283 40.7301849 -38.0886097 37.51371574 C-38.08845734 35.98325342 -38.09442984 34.45277671 -38.10690117 32.92236519 C-38.23169354 15.1008271 -38.23169354 15.1008271 -31.90086365 8.23097229 C-26.14711192 2.76653561 -19.76998627 0.72556056 -11.90478516 0.37890625 C-11.18291016 0.34692139 -10.46103516 0.31493652 -9.71728516 0.28198242 C-6.47893331 0.15406201 -3.23974723 0.08299221 0 0 Z M-13.59228516 24.06640625 C-13.89967389 26.80401372 -13.89967389 26.80401372 -13.85107422 30.04492188 C-13.85737854 31.2996228 -13.86368286 32.55432373 -13.87017822 33.8470459 C-13.86659854 35.22225077 -13.86249661 36.59745437 -13.85791016 37.97265625 C-13.85925688 39.37748278 -13.86119748 40.78230886 -13.8637085 42.18713379 C-13.86665942 45.13277621 -13.86236324 48.07829743 -13.85302734 51.02392578 C-13.84163271 54.80379128 -13.84819237 58.58337277 -13.86017227 62.36322784 C-13.86739181 65.26452788 -13.86510254 68.16576034 -13.85991669 71.06706238 C-13.85858044 72.4609531 -13.86022704 73.85484991 -13.86487579 75.24873352 C-13.86994226 77.19511806 -13.86085386 79.14152406 -13.85107422 81.08789062 C-13.84948303 82.19660522 -13.84789185 83.30531982 -13.84625244 84.44763184 C-13.85685553 87.22553606 -13.85685553 87.22553606 -11.59228516 89.06640625 C-7.10970563 89.52686114 -2.5957648 89.39040645 1.90771484 89.37890625 C3.16970703 89.39501953 4.43169922 89.41113281 5.73193359 89.42773438 C6.93462891 89.42837891 8.13732422 89.42902344 9.37646484 89.4296875 C10.48441406 89.43266846 11.59236328 89.43564941 12.73388672 89.4387207 C13.61625 89.31585693 14.49861328 89.19299316 15.40771484 89.06640625 C17.71993241 85.59807991 17.66040872 84.26469875 17.66650391 80.17382812 C17.67280823 78.96247192 17.67911255 77.75111572 17.68560791 76.50305176 C17.68155945 75.19364624 17.67751099 73.88424072 17.67333984 72.53515625 C17.67468718 71.17899506 17.67662829 69.82283434 17.67913818 68.4666748 C17.68208622 65.62536009 17.6778022 62.78417118 17.66845703 59.94287109 C17.65706255 56.30101253 17.66362375 52.65944876 17.67560196 49.01760101 C17.68282927 46.21748636 17.68052865 43.41744159 17.67534637 40.61732483 C17.6733635 38.62146819 17.67943708 36.62560883 17.68560791 34.62976074 C17.67930359 33.41840454 17.67299927 32.20704834 17.66650391 30.95898438 C17.66491272 29.89103638 17.66332153 28.82308838 17.66168213 27.72277832 C17.59722461 24.83826106 17.59722461 24.83826106 15.40771484 22.06640625 C12.62959735 21.61570871 12.62959735 21.61570871 9.37646484 21.703125 C8.17376953 21.70376953 6.97107422 21.70441406 5.73193359 21.70507812 C3.83894531 21.72924805 3.83894531 21.72924805 1.90771484 21.75390625 C0.64572266 21.75068359 -0.61626953 21.74746094 -1.91650391 21.74414062 C-8.3440444 21.28755088 -8.3440444 21.28755088 -13.59228516 24.06640625 Z " fill="#101721" transform="translate(126.59228515625,650.93359375)"/>
<path d="M0 0 C7.34652987 -0.07652334 14.69295564 -0.12879747 22.03979492 -0.16479492 C24.5352767 -0.17981335 27.0307324 -0.20023414 29.52612305 -0.22631836 C33.12815825 -0.26300775 36.72984224 -0.27979647 40.33203125 -0.29296875 C41.43456741 -0.30845261 42.53710358 -0.32393646 43.67304993 -0.33988953 C53.16075732 -0.34191717 62.11910842 0.70344438 69.5625 7.01171875 C73.57511245 12.56177239 74.45608028 18.51939557 74.3984375 25.15625 C74.40130768 25.9028186 74.40417786 26.64938721 74.40713501 27.4185791 C74.40916145 28.98495246 74.40373188 30.55135195 74.39111328 32.11767578 C74.37503788 34.49439909 74.39100934 36.86942236 74.41015625 39.24609375 C74.40817356 40.77864953 74.40432936 42.31120426 74.3984375 43.84375 C74.40451019 44.54294556 74.41058289 45.24214111 74.4168396 45.96252441 C74.3323779 51.9851206 73.02602647 57.48150654 69.16796875 62.27734375 C68.51441406 62.82519531 67.86085938 63.37304688 67.1875 63.9375 C66.54167969 64.50339844 65.89585937 65.06929687 65.23046875 65.65234375 C62.51223711 67.29470788 60.11868855 67.54671617 57 68 C57.39268066 68.78012451 57.78536133 69.56024902 58.18994141 70.36401367 C59.67895181 73.32475093 61.16600948 76.28645348 62.65185547 79.2487793 C63.2891251 80.51836237 63.92711857 81.78758243 64.56591797 83.05639648 C68.88282225 91.63241972 73.01939284 100.26103627 77 109 C68.42 109 59.84 109 51 109 C49.0608676 104.57099085 47.12190176 100.14190953 45.18334961 95.71264648 C44.52491706 94.20837265 43.86639002 92.70414017 43.20776367 91.19995117 C42.25674514 89.02794292 41.3060755 86.85578225 40.35546875 84.68359375 C40.0647197 84.01976181 39.77397064 83.35592987 39.47441101 82.67198181 C37.62999183 78.45623761 35.80802085 74.23148722 34 70 C30.7 69.67 27.4 69.34 24 69 C24 82.2 24 95.4 24 109 C16.41 109.33 8.82 109.66 1 110 C-0.17417134 107.65165731 -0.12329052 106.27642522 -0.12025452 103.65939331 C-0.12162918 102.74791534 -0.12300385 101.83643738 -0.12442017 100.89733887 C-0.12082489 99.89464966 -0.11722961 98.89196045 -0.11352539 97.85888672 C-0.11367142 96.80520905 -0.11381744 95.75153137 -0.1139679 94.66592407 C-0.1132692 91.1704912 -0.10547881 87.6751111 -0.09765625 84.1796875 C-0.09579192 81.76115956 -0.09436809 79.34263124 -0.09336853 76.92410278 C-0.08954456 70.54871585 -0.07971529 64.17335159 -0.06866455 57.79797363 C-0.05844785 51.29630846 -0.05387035 44.79463963 -0.04882812 38.29296875 C-0.03809293 25.52863614 -0.0212093 12.76431928 0 0 Z M24 21 C24 30.24 24 39.48 24 49 C27.898125 49.061875 31.79625 49.12375 35.8125 49.1875 C37.65098511 49.22846802 37.65098511 49.22846802 39.52661133 49.27026367 C40.4936499 49.27775635 41.46068848 49.28524902 42.45703125 49.29296875 C43.9416687 49.31653442 43.9416687 49.31653442 45.45629883 49.34057617 C48.00419429 49.18778858 48.00419429 49.18778858 49.8215332 47.79418945 C51.38062564 45.42050594 51.3876382 43.83044608 51.3984375 41 C51.40230469 40.030625 51.40617187 39.06125 51.41015625 38.0625 C51.39855469 37.051875 51.38695312 36.04125 51.375 35 C51.38660156 33.989375 51.39820313 32.97875 51.41015625 31.9375 C51.40435547 30.4834375 51.40435547 30.4834375 51.3984375 29 C51.39505371 28.113125 51.39166992 27.22625 51.38818359 26.3125 C51.15532373 23.9738186 51.15532373 23.9738186 49.8215332 22.20581055 C47.28586934 20.52726292 45.48184526 20.65901833 42.45703125 20.70703125 C41.48999268 20.71452393 40.5229541 20.7220166 39.52661133 20.72973633 C37.68812622 20.77070435 37.68812622 20.77070435 35.8125 20.8125 C31.914375 20.874375 28.01625 20.93625 24 21 Z " fill="#101721" transform="translate(181,652)"/>
<path d="M0 0 C1.30582031 -0.00773438 2.61164063 -0.01546875 3.95703125 -0.0234375 C15.00295376 -0.00109994 23.64446926 0.36016661 31.875 8.25 C36.6196986 13.80706635 37.99589394 18.06575493 38.06787109 25.31665039 C38.08013733 26.39048981 38.08013733 26.39048981 38.09265137 27.48602295 C38.11747042 29.856559 38.13401746 32.22703505 38.1484375 34.59765625 C38.15376118 35.4098657 38.15908485 36.22207516 38.16456985 37.05889702 C38.19129358 41.3627414 38.210666 45.66655693 38.22509766 49.97045898 C38.23840412 53.5195512 38.26619604 57.06806399 38.30712891 60.61694336 C38.35667176 64.912843 38.38124565 69.20821955 38.38832474 73.50439262 C38.3950037 75.13455351 38.4101375 76.76470427 38.43421555 78.394701 C38.56177492 87.55697171 38.45227746 95.49327869 32.875 103.25 C27.60768035 108.65593333 21.42844133 110.56991105 14.08732605 110.71813965 C13.25800064 110.71834106 12.42867523 110.71854248 11.57421875 110.71875 C10.69780228 110.72636353 9.8213858 110.73397705 8.91841125 110.74182129 C7.07201978 110.75257922 5.22556768 110.755493 3.37915039 110.75097656 C0.58048965 110.75000624 -2.21540749 110.7916339 -5.01367188 110.8359375 C-22.99431265 110.95764136 -22.99431265 110.95764136 -30.125 105.25 C-39.1789731 96.10004021 -38.44889872 84.52429138 -38.4609375 72.41015625 C-38.46737843 70.87755717 -38.47410772 69.34495929 -38.48110962 67.81236267 C-38.49302793 64.61259106 -38.49679592 61.41292698 -38.49560547 58.21313477 C-38.49540218 54.13700419 -38.52273898 50.06156995 -38.55714989 45.98560429 C-38.5795106 42.82406008 -38.58344028 39.66268135 -38.58238602 36.50106621 C-38.58472686 34.99932893 -38.59346367 33.49758602 -38.60905075 31.99592781 C-38.78520049 13.28043777 -38.78520049 13.28043777 -32.34034729 6.32356262 C-23.72835022 -1.29886748 -10.75237186 -0.06406577 0 0 Z M-14.125 23.25 C-14.2295582 25.233432 -14.26355605 27.22061241 -14.27026367 29.20678711 C-14.27664352 30.48158432 -14.28302338 31.75638153 -14.28959656 33.06980896 C-14.29112511 34.47232017 -14.29223914 35.87483189 -14.29296875 37.27734375 C-14.29617965 38.70601943 -14.29954359 40.13469478 -14.30305481 41.56336975 C-14.30905239 44.56202965 -14.31089407 47.5606607 -14.31030273 50.55932617 C-14.31020109 54.40757949 -14.32385297 58.2556484 -14.34107494 62.10385799 C-14.35217706 65.05575922 -14.3542225 68.00761562 -14.35369301 70.9595356 C-14.35487585 72.37855223 -14.35931454 73.79756991 -14.36702538 75.21656609 C-14.37678854 77.19895949 -14.37269253 79.18140666 -14.36791992 81.16381836 C-14.36934494 82.29331406 -14.37076996 83.42280975 -14.37223816 84.58653259 C-14.39667096 87.40414451 -14.39667096 87.40414451 -12.125 89.25 C-9.53755561 89.56133586 -9.53755561 89.56133586 -6.53125 89.515625 C-5.41878906 89.51820313 -4.30632812 89.52078125 -3.16015625 89.5234375 C-1.99355469 89.51570312 -0.82695312 89.50796875 0.375 89.5 C1.54160156 89.50773438 2.70820313 89.51546875 3.91015625 89.5234375 C5.02261719 89.52085937 6.13507813 89.51828125 7.28125 89.515625 C8.81749023 89.51224121 8.81749023 89.51224121 10.38476562 89.50878906 C13.04882203 89.49633072 13.04882203 89.49633072 14.875 87.25 C15.18238873 84.51239253 15.18238873 84.51239253 15.13378906 81.27148438 C15.14009338 80.01678345 15.14639771 78.76208252 15.15289307 77.46936035 C15.14931339 76.09415548 15.14521145 74.71895188 15.140625 73.34375 C15.14197173 71.93892347 15.14391232 70.53409739 15.14642334 69.12927246 C15.14937426 66.18363004 15.14507809 63.23810882 15.13574219 60.29248047 C15.12434755 56.51261497 15.13090721 52.73303348 15.14288712 48.95317841 C15.15010665 46.05187837 15.14781738 43.15064591 15.14263153 40.24934387 C15.14129529 38.85545315 15.14294188 37.46155634 15.14759064 36.06767273 C15.15265711 34.12128819 15.1435687 32.17488219 15.13378906 30.22851562 C15.13219788 29.11980103 15.13060669 28.01108643 15.12896729 26.86877441 C15.13957037 24.09087019 15.13957037 24.09087019 12.875 22.25 C10.17269106 21.9549881 10.17269106 21.9549881 7.02734375 22.01953125 C5.28420898 22.02243164 5.28420898 22.02243164 3.50585938 22.02539062 C2.28705078 22.03763672 1.06824219 22.04988281 -0.1875 22.0625 C-1.41017578 22.06314453 -2.63285156 22.06378906 -3.89257812 22.06445312 C-9.37770329 21.55796754 -9.37770329 21.55796754 -14.125 23.25 Z " fill="#101721" transform="translate(395.125,650.75)"/>
<path d="M0 0 C7.92 0 15.84 0 24 0 C24 13.86 24 27.72 24 42 C33.57 42 43.14 42 53 42 C52.67 41.34 52.34 40.68 52 40 C51.91294854 37.01029711 51.88449855 34.04415045 51.90234375 31.0546875 C51.9037587 30.1696756 51.90517365 29.2846637 51.90663147 28.37283325 C51.9122386 25.54018809 51.92479229 22.70762136 51.9375 19.875 C51.94251408 17.95703239 51.94707715 16.03906354 51.95117188 14.12109375 C51.96136037 9.41400782 51.98093437 4.70709192 52 0 C59.92 0 67.84 0 76 0 C76 36.3 76 72.6 76 110 C68.08 109.67 60.16 109.34 52 109 C52 94.15 52 79.3 52 64 C43.09 64 34.18 64 25 64 C24.67 78.85 24.34 93.7 24 109 C16.08 109 8.16 109 0 109 C0 73.03 0 37.06 0 0 Z " fill="#121923" transform="translate(700,652)"/>
<path d="M0 0 C21.78 0 43.56 0 66 0 C66 6.93 66 13.86 66 21 C52.14 21 38.28 21 24 21 C24 28.59 24 36.18 24 44 C36.21 44 48.42 44 61 44 C61 50.93 61 57.86 61 65 C48.79 65 36.58 65 24 65 C24 72.59 24 80.18 24 88 C38.19 88 52.38 88 67 88 C67 94.93 67 101.86 67 109 C44.89 109 22.78 109 0 109 C0 73.03 0 37.06 0 0 Z " fill="#101721" transform="translate(532,652)"/>
<path d="M0 0 C0.83202438 -0.00761353 1.66404877 -0.01522705 2.52128601 -0.02307129 C4.27351906 -0.0338249 6.02581595 -0.03674478 7.77807617 -0.03222656 C10.43193808 -0.03125632 13.08288419 -0.0728855 15.73632812 -0.1171875 C25.79755556 -0.18864659 34.29543675 0.02433266 42.05200195 7.25390625 C48.0343718 13.49157057 48.42360965 20.07486087 48.26171875 28.34375 C48.25269531 29.22289062 48.24367188 30.10203125 48.234375 31.0078125 C48.21096452 33.1615771 48.17509885 35.31520014 48.13671875 37.46875 C44.32423449 37.49762236 40.51177805 37.51550492 36.69921875 37.53125 C35.61060547 37.53962891 34.52199219 37.54800781 33.40039062 37.55664062 C32.36591797 37.55986328 31.33144531 37.56308594 30.265625 37.56640625 C29.3072876 37.57164307 28.3489502 37.57687988 27.36157227 37.58227539 C25.13671875 37.46875 25.13671875 37.46875 24.13671875 36.46875 C23.8114517 33.10765715 23.62312415 29.7454101 23.41796875 26.375 C23.45811985 23.57824868 23.45811985 23.57824868 22.13671875 22.46875 C20.35600629 22.38148777 18.57188735 22.36175959 16.7890625 22.37109375 C15.70947266 22.37431641 14.62988281 22.37753906 13.51757812 22.38085938 C11.81311523 22.39342773 11.81311523 22.39342773 10.07421875 22.40625 C8.36395508 22.41301758 8.36395508 22.41301758 6.61914062 22.41992188 C3.79161524 22.43175253 0.96419235 22.4482359 -1.86328125 22.46875 C-3.20550805 25.1532036 -3.00523583 27.24195481 -3.02441406 30.24780273 C-3.03402161 31.45923447 -3.04362915 32.6706662 -3.05352783 33.91880798 C-3.05777771 35.23337479 -3.06202759 36.54794159 -3.06640625 37.90234375 C-3.07215748 39.2599335 -3.07791522 40.61752322 -3.0836792 41.97511292 C-3.09418739 44.82236103 -3.10003144 47.66958092 -3.10351562 50.5168457 C-3.10900435 54.16664123 -3.13304065 57.81606442 -3.16148758 61.46574306 C-3.18010239 64.27013747 -3.18531889 67.07444192 -3.1868515 69.8788929 C-3.1913542 71.87922095 -3.21000494 73.87950086 -3.2288208 75.87974548 C-3.2258197 77.09432938 -3.2228186 78.30891327 -3.21972656 79.56030273 C-3.22337219 80.63126694 -3.22701782 81.70223114 -3.23077393 82.8056488 C-3.080063 85.49218679 -3.080063 85.49218679 -1.47406006 87.3147583 C0.67334617 88.8531998 2.07214938 88.84178261 4.69921875 88.83203125 C6.01792969 88.83106445 6.01792969 88.83106445 7.36328125 88.83007812 C8.27851562 88.81396484 9.19375 88.79785156 10.13671875 88.78125 C11.05195312 88.78447266 11.9671875 88.78769531 12.91015625 88.79101562 C18.33896678 88.84932657 18.33896678 88.84932657 23.13671875 86.46875 C23.64719193 83.38344117 23.64719193 83.38344117 23.69921875 79.90625 C23.77690717 77.75687042 23.90687 75.60721618 24.13671875 73.46875 C26.64168879 72.21626498 28.34525149 72.35500594 31.14453125 72.37109375 C32.13066406 72.37431641 33.11679687 72.37753906 34.1328125 72.38085938 C35.16535156 72.38923828 36.19789063 72.39761719 37.26171875 72.40625 C38.82212891 72.41301758 38.82212891 72.41301758 40.4140625 72.41992188 C42.98833837 72.43173048 45.56250021 72.44819925 48.13671875 72.46875 C48.21821467 75.49013567 48.27745296 78.50928905 48.32421875 81.53125 C48.34935547 82.37880859 48.37449219 83.22636719 48.40039062 84.09960938 C48.49354855 92.14224352 46.41555842 97.88792407 40.921875 103.89453125 C34.66536771 109.41175759 27.17392461 110.2617447 19.13671875 110.46875 C18.35087402 110.48921387 17.5650293 110.50967773 16.75537109 110.53076172 C14.02825789 110.59183533 11.30186788 110.62852416 8.57421875 110.65625 C7.26275879 110.67606934 7.26275879 110.67606934 5.92480469 110.69628906 C-4.22910036 110.70771078 -13.10697037 109.4601387 -20.86328125 102.46875 C-25.45467296 96.67198099 -26.98354958 91.86094873 -27.0402832 84.4621582 C-27.0468544 83.75280624 -27.0534256 83.04345428 -27.06019592 82.31260681 C-27.07990553 79.96491382 -27.09158801 77.61728483 -27.1015625 75.26953125 C-27.10563803 74.46585806 -27.10971355 73.66218487 -27.11391258 72.83415794 C-27.1347662 68.5779992 -27.14906937 64.3218726 -27.15844727 60.06567383 C-27.16949316 55.68207593 -27.20387365 51.29898824 -27.24361897 46.91557026 C-27.26984224 43.53451127 -27.27814428 40.15357261 -27.28172874 36.77242088 C-27.28658221 35.15737664 -27.2981607 33.54233732 -27.31676674 31.92739296 C-27.49994687 14.97006189 -27.49994687 14.97006189 -21.1875 7.48046875 C-20.37732422 6.82498047 -20.37732422 6.82498047 -19.55078125 6.15625 C-19.01839844 5.70636719 -18.48601563 5.25648438 -17.9375 4.79296875 C-11.95243606 0.97199573 -6.96867213 0.00178671 0 0 Z " fill="#101721" transform="translate(638.86328125,651.53125)"/>
<path d="M0 0 C0.72245911 -0.0066568 1.44491821 -0.0133136 2.18927002 -0.02017212 C3.71209182 -0.03025146 5.23495737 -0.03499061 6.7578125 -0.03466797 C9.05805461 -0.03902449 11.35634866 -0.07534372 13.65625 -0.11328125 C22.46635444 -0.18157987 31.24857282 -0.11946569 38.22363281 5.99853516 C43.74219925 11.67961795 45.68002571 18.46312182 45.59838867 26.20898438 C45.57107666 27.07587891 45.54376465 27.94277344 45.515625 28.8359375 C45.45375 31.6409375 45.391875 34.4459375 45.328125 37.3359375 C37.738125 37.3359375 30.148125 37.3359375 22.328125 37.3359375 C22.1328125 34.015625 21.9375 30.6953125 21.7421875 27.375 C21.62595154 24.23031431 21.62595154 24.23031431 19.328125 22.3359375 C15.68058833 21.883614 12.00049239 22.01187463 8.328125 22.0234375 C7.30460937 22.00732422 6.28109375 21.99121094 5.2265625 21.97460938 C3.76089844 21.97364258 3.76089844 21.97364258 2.265625 21.97265625 C1.36714844 21.96967529 0.46867187 21.96669434 -0.45703125 21.96362305 C-1.18792969 22.08648682 -1.91882813 22.20935059 -2.671875 22.3359375 C-4.96016007 25.76836511 -4.9203653 27.00921041 -4.91479492 31.04492188 C-4.91787155 32.21623657 -4.92094818 33.38755127 -4.92411804 34.59436035 C-4.91693253 35.86001831 -4.90974701 37.12567627 -4.90234375 38.4296875 C-4.90188553 39.72789429 -4.90142731 41.02610107 -4.9009552 42.36364746 C-4.89939163 45.11081293 -4.89111204 47.85784784 -4.87768555 50.60498047 C-4.86069589 54.12570459 -4.85687131 57.64628528 -4.85763073 61.16704559 C-4.85729336 64.52544543 -4.84845414 67.88379826 -4.83984375 71.2421875 C-4.83873093 72.50784546 -4.8376181 73.77350342 -4.83647156 75.07751465 C-4.83009171 76.24882935 -4.82371185 77.42014404 -4.81713867 78.62695312 C-4.81332687 79.65937134 -4.80951508 80.69178955 -4.80558777 81.75549316 C-4.78078507 84.45372615 -4.78078507 84.45372615 -3.671875 87.3359375 C-1.35663461 88.4935577 -0.00071438 88.46496055 2.57421875 88.46875 C3.41146484 88.47003906 4.24871094 88.47132813 5.11132812 88.47265625 C5.98724609 88.46878906 6.86316406 88.46492187 7.765625 88.4609375 C9.07370117 88.46673828 9.07370117 88.46673828 10.40820312 88.47265625 C11.24673828 88.47136719 12.08527344 88.47007812 12.94921875 88.46875 C13.7167749 88.46762207 14.48433105 88.46649414 15.27514648 88.46533203 C17.52887903 88.41120094 17.52887903 88.41120094 20.328125 87.3359375 C21.67904028 84.63410695 21.66670558 82.21785544 21.890625 79.2109375 C22.035 77.2721875 22.179375 75.3334375 22.328125 73.3359375 C29.918125 73.3359375 37.508125 73.3359375 45.328125 73.3359375 C45.39 76.1409375 45.451875 78.9459375 45.515625 81.8359375 C45.55659302 83.1362793 45.55659302 83.1362793 45.59838867 84.46289062 C45.66624745 90.90144849 44.5375208 96.24606467 40.75 101.54296875 C31.80206826 110.13549199 22.63877478 110.54160829 10.62792969 110.57617188 C8.59788489 110.58584336 6.56886884 110.61689121 4.5390625 110.6484375 C-4.45491018 110.68405719 -12.94654677 110.45004004 -19.984375 104.2109375 C-20.59925781 103.69273437 -21.21414062 103.17453125 -21.84765625 102.640625 C-28.52009681 94.21077505 -28.27934893 85.08830573 -28.23828125 74.83984375 C-28.24352642 73.23998149 -28.24980615 71.64012233 -28.25706482 70.04026794 C-28.26742988 66.69914116 -28.26296435 63.3584413 -28.24829102 60.01733398 C-28.23111122 55.75938763 -28.25460773 51.50279187 -28.28978062 47.24499607 C-28.31185963 43.94442494 -28.31028794 40.64417178 -28.3020153 37.34354973 C-28.30120147 35.77483578 -28.30795507 34.20609713 -28.32278633 32.63745308 C-28.3947883 23.64520314 -28.08289296 15.96243749 -22.671875 8.3359375 C-20.42578125 6.1171875 -20.42578125 6.1171875 -18.234375 4.8359375 C-17.51378906 4.3925 -16.79320312 3.9490625 -16.05078125 3.4921875 C-10.71630812 0.89940582 -5.89181416 0.01924519 0 0 Z " fill="#101721" transform="translate(30.671875,651.6640625)"/>
<path d="M0 0 C7.92 0 15.84 0 24 0 C26.65252638 9.85391083 29.20654266 19.72127116 31.63671875 29.6328125 C31.96481277 30.96705473 32.29300606 32.30127254 32.62129211 33.63546753 C33.30029792 36.39639915 33.97830342 39.1575737 34.65551758 41.91894531 C35.52118512 45.44849772 36.38916668 48.97747628 37.25784588 52.50628853 C37.93210249 55.2461868 38.60529262 57.98634621 39.27814674 60.7265892 C39.75234255 62.65714001 40.22732153 64.58749839 40.70231628 66.51785278 C41.13330376 68.27656204 41.13330376 68.27656204 41.57299805 70.07080078 C41.825186 71.0981131 42.07737396 72.12542542 42.33720398 73.18386841 C42.94841504 75.78082242 43.49466403 78.38061674 44 81 C46.90582092 72.8539511 48.93681928 64.52666351 50.9765625 56.1328125 C51.35066228 54.60577698 51.72512944 53.07883141 52.09994507 51.55197144 C53.07925238 47.55912779 54.05432607 43.5652634 55.02825928 39.57110596 C56.59278915 33.15792565 58.16371161 26.74630878 59.73484421 20.3347435 C60.28182503 18.09988344 60.82692368 15.8645708 61.37173462 13.62918091 C61.70562786 12.26335685 62.03955928 10.89754213 62.37353516 9.53173828 C62.80963608 7.74378342 62.80963608 7.74378342 63.25454712 5.91970825 C64 3 64 3 65 0 C72.92 0 80.84 0 89 0 C85.47866803 15.5440327 81.36526899 30.9243836 77.25280762 46.31976318 C76.32086941 49.81095947 75.39208018 53.30299324 74.46289062 56.79492188 C72.83676822 62.90384214 71.20644795 69.01162976 69.57272148 75.11852074 C68.69848213 78.3865275 67.82513874 81.65476687 66.9541626 84.92364502 C65.977957 88.58635444 64.99908159 92.24834015 64.01953125 95.91015625 C63.5815345 97.5569059 63.5815345 97.5569059 63.13468933 99.23692322 C62.73314384 100.73431786 62.73314384 100.73431786 62.32348633 102.26196289 C62.09075516 103.13349503 61.85802399 104.00502716 61.61824036 104.90296936 C61 107 61 107 60 109 C44.655 109.495 44.655 109.495 29 110 C23.82870955 92.29476319 19.1575771 74.47543876 14.53533936 56.62145996 C12.95572793 50.52072486 11.37343374 44.4206866 9.78856277 38.32131577 C9.40800802 36.85669982 9.02765267 35.39203205 8.6475029 33.92731094 C6.29529213 24.86896385 3.90854487 15.82275119 1.32249451 6.82771301 C0 2.19688233 0 2.19688233 0 0 Z " fill="#101721" transform="translate(261,652)"/>
<path d="M0 0 C1.9453125 -0.29296875 1.9453125 -0.29296875 4.125 -0.1875 C5.40375 -0.125625 6.6825 -0.06375 8 0 C9.36421031 2.72842061 8.87807211 4.60953318 8.5625 7.625 C8.46066406 8.62789063 8.35882813 9.63078125 8.25390625 10.6640625 C8.17011719 11.43492187 8.08632813 12.20578125 8 13 C11.3 13 14.6 13 18 13 C17.979375 11.411875 17.95875 9.82375 17.9375 8.1875 C17.89664697 5.04181692 17.99503148 3.01490557 19 0 C21.97 0 24.94 0 28 0 C29.45781334 4.37344001 29.0598032 8.39515357 29 13 C32.3 13 35.6 13 39 13 C39 8.71 39 4.42 39 0 C41.97 0 44.94 0 48 0 C49.45184478 4.53701494 50.23509196 8.18061476 50 13 C50.9075 12.938125 51.815 12.87625 52.75 12.8125 C56.37304782 13.02152199 57.59003107 13.32225674 60 16 C60.75 19.1875 60.75 19.1875 61 22 C61.85464844 21.98839844 62.70929688 21.97679687 63.58984375 21.96484375 C64.69457031 21.95582031 65.79929687 21.94679688 66.9375 21.9375 C68.03964844 21.92589844 69.14179688 21.91429687 70.27734375 21.90234375 C73 22 73 22 74 23 C74.04092937 25.33297433 74.04241723 27.66705225 74 30 C71.35541621 31.32229189 69.32238699 31.09677194 66.375 31.0625 C65.37210937 31.05347656 64.36921875 31.04445313 63.3359375 31.03515625 C62.56507813 31.02355469 61.79421875 31.01195312 61 31 C61 33.97 61 36.94 61 40 C61.77085937 39.98839844 62.54171875 39.97679687 63.3359375 39.96484375 C64.33882813 39.95582031 65.34171875 39.94679688 66.375 39.9375 C67.87160156 39.92009766 67.87160156 39.92009766 69.3984375 39.90234375 C72 40 72 40 74 41 C74.29296875 47.0546875 74.29296875 47.0546875 74 49 C70.68629 51.20914 69.6553979 51.22481553 65.8125 51.125 C64.91144531 51.10695313 64.01039063 51.08890625 63.08203125 51.0703125 C62.39496094 51.04710937 61.70789063 51.02390625 61 51 C61 53.97 61 56.94 61 60 C62.216875 59.979375 63.43375 59.95875 64.6875 59.9375 C67.91977322 59.93175884 70.84934741 60.21233685 74 61 C74 63.97 74 66.94 74 70 C69.49646738 71.75747614 65.82360189 72.19294408 61 72 C60.896875 73.258125 60.79375 74.51625 60.6875 75.8125 C60.36328461 78.25924549 60.12134085 79.79102409 58.875 81.9375 C56.04241497 83.54263152 53.20311579 83.69781926 50 84 C50.01160156 84.60328125 50.02320313 85.2065625 50.03515625 85.828125 C50.04417969 86.62734375 50.05320312 87.4265625 50.0625 88.25 C50.07410156 89.03890625 50.08570313 89.8278125 50.09765625 90.640625 C50.00385306 92.90691002 49.63241063 94.8288895 49 97 C44.46625958 98.03039555 43.35532149 98.17766075 39 96 C39 92.04 39 88.08 39 84 C35.7 84 32.4 84 29 84 C29 88.29 29 92.58 29 97 C25.7 97 22.4 97 19 97 C17.85616359 92.42465436 17.93084949 88.70223451 18 84 C15.03 84 12.06 84 9 84 C8.67 88.29 8.34 92.58 8 97 C5.03 97 2.06 97 -1 97 C-2.32229189 94.35541621 -2.09677194 92.32238699 -2.0625 89.375 C-2.05347656 88.37210938 -2.04445313 87.36921875 -2.03515625 86.3359375 C-2.02355469 85.56507813 -2.01195312 84.79421875 -2 84 C-2.928125 84.061875 -3.85625 84.12375 -4.8125 84.1875 C-8 84 -8 84 -9.65625 82.8125 C-11.40979269 80.44725638 -11.49802264 78.73045139 -11.6875 75.8125 C-11.75324219 74.91144531 -11.81898438 74.01039063 -11.88671875 73.08203125 C-11.92410156 72.39496094 -11.96148437 71.70789063 -12 71 C-12.77085937 71.01160156 -13.54171875 71.02320313 -14.3359375 71.03515625 C-15.84027344 71.04869141 -15.84027344 71.04869141 -17.375 71.0625 C-18.37273437 71.07410156 -19.37046875 71.08570313 -20.3984375 71.09765625 C-23 71 -23 71 -25 70 C-25 67.36 -25 64.72 -25 62 C-22.35541621 60.67770811 -20.32238699 60.90322806 -17.375 60.9375 C-15.87066406 60.95103516 -15.87066406 60.95103516 -14.3359375 60.96484375 C-13.56507813 60.97644531 -12.79421875 60.98804688 -12 61 C-12 57.7 -12 54.4 -12 51 C-13.4025 51.04125 -14.805 51.0825 -16.25 51.125 C-19.77920727 51.22880021 -21.93753253 50.78409802 -25 49 C-25.09765625 42.84765625 -25.09765625 42.84765625 -25 41 C-24 40 -24 40 -21.27734375 39.90234375 C-20.17519531 39.91394531 -19.07304687 39.92554688 -17.9375 39.9375 C-16.28041016 39.95103516 -16.28041016 39.95103516 -14.58984375 39.96484375 C-13.73519531 39.97644531 -12.88054687 39.98804688 -12 40 C-12 37.03 -12 34.06 -12 31 C-13.03060547 31.01740234 -13.03060547 31.01740234 -14.08203125 31.03515625 C-14.98308594 31.04417969 -15.88414062 31.05320312 -16.8125 31.0625 C-18.15248047 31.07990234 -18.15248047 31.07990234 -19.51953125 31.09765625 C-22 31 -22 31 -25 30 C-25 27.69 -25 25.38 -25 23 C-20.49646738 21.24252386 -16.82360189 20.80705592 -12 21 C-11.8453125 19.576875 -11.8453125 19.576875 -11.6875 18.125 C-11 15 -11 15 -8 13 C-4.8125 12.875 -4.8125 12.875 -2 13 C-2.02320313 12.31292969 -2.04640625 11.62585938 -2.0703125 10.91796875 C-2.08835937 10.01691406 -2.10640625 9.11585938 -2.125 8.1875 C-2.14820313 7.29417969 -2.17140625 6.40085937 -2.1953125 5.48046875 C-2 3 -2 3 0 0 Z M-1 26 C-1.30531902 28.04587675 -1.30531902 28.04587675 -1.25878906 30.41796875 C-1.26509338 31.33231689 -1.27139771 32.24666504 -1.27789307 33.1887207 C-1.2738446 34.17831787 -1.26979614 35.16791504 -1.265625 36.1875 C-1.26753845 37.20094482 -1.2694519 38.21438965 -1.27142334 39.25854492 C-1.27278591 41.40381112 -1.26908447 43.54908553 -1.26074219 45.69433594 C-1.25004382 48.98651572 -1.26063519 52.27814978 -1.2734375 55.5703125 C-1.27211592 57.65104288 -1.26955355 59.73177291 -1.265625 61.8125 C-1.26967346 62.80209717 -1.27372192 63.79169434 -1.27789307 64.8112793 C-1.27158875 65.72562744 -1.26528442 66.63997559 -1.25878906 67.58203125 C-1.25719788 68.38874268 -1.25560669 69.1954541 -1.25396729 70.02661133 C-1.1743125 72.23306436 -1.1743125 72.23306436 1 74 C3.08658871 74.30547892 3.08658871 74.30547892 5.50976562 74.25878906 C6.44413452 74.26509338 7.37850342 74.27139771 8.34118652 74.27789307 C9.35265747 74.2738446 10.36412842 74.26979614 11.40625 74.265625 C12.44189087 74.26753845 13.47753174 74.2694519 14.54455566 74.27142334 C16.73690025 74.27278597 18.92925289 74.26908414 21.12158203 74.26074219 C24.48618616 74.25004392 27.85025632 74.26063503 31.21484375 74.2734375 C33.34114702 74.27211592 35.46744995 74.26955356 37.59375 74.265625 C39.11095642 74.27169769 39.11095642 74.27169769 40.65881348 74.27789307 C41.59318237 74.27158875 42.52755127 74.26528442 43.49023438 74.25878906 C44.31471069 74.25719788 45.13918701 74.25560669 45.98864746 74.25396729 C48.22876868 74.1798684 48.22876868 74.1798684 50 72 C50.2918018 69.89849837 50.2918018 69.89849837 50.22705078 67.45849609 C50.22682419 66.04725967 50.22682419 66.04725967 50.22659302 64.60751343 C50.21627045 63.58976837 50.20594788 62.57202332 50.1953125 61.5234375 C50.1924826 60.48305328 50.18965271 59.44266907 50.18673706 58.37075806 C50.17551704 55.03872306 50.15040915 51.70695414 50.125 48.375 C50.11497256 46.11979554 50.1058463 43.86458688 50.09765625 41.609375 C50.07557178 36.07282546 50.04207639 30.53643173 50 25 C45.69783138 23.36768283 42.15562268 22.75228675 37.5625 22.76953125 C35.72365234 22.77243164 35.72365234 22.77243164 33.84765625 22.77539062 C31.94306641 22.79375977 31.94306641 22.79375977 30 22.8125 C28.76121094 22.81314453 27.52242188 22.81378906 26.24609375 22.81445312 C11.6573931 21.72840321 11.6573931 21.72840321 -1 26 Z " fill="#111821" transform="translate(370,483)"/>
<path d="M0 0 C25.74 0 51.48 0 78 0 C78 6.93 78 13.86 78 21 C69.09 21 60.18 21 51 21 C51 50.04 51 79.08 51 109 C43.08 109 35.16 109 27 109 C27 79.96 27 50.92 27 21 C18.09 21 9.18 21 0 21 C0 14.07 0 7.14 0 0 Z " fill="#101721" transform="translate(444,652)"/>
<path d="M0 0 C10.89 0 21.78 0 33 0 C33 10.56 33 21.12 33 32 C25.30682633 32.64109781 17.92318875 33.13784098 10.25 33.0625 C8.90035156 33.05573242 8.90035156 33.05573242 7.5234375 33.04882812 C5.34892818 33.03726159 3.17445409 33.01933803 1 33 C-0.48679725 30.02640551 -0.11112605 27.33700821 -0.09765625 24.0234375 C-0.09515869 22.76966309 -0.09266113 21.51588867 -0.09008789 20.22412109 C-0.08098389 18.62391113 -0.07187988 17.02370117 -0.0625 15.375 C-0.041875 10.30125 -0.02125 5.2275 0 0 Z " fill="#101721" transform="translate(378,516)"/>
<path d="M0 0 C3.5 1.5625 3.5 1.5625 6 4 C7.1875 7.4375 7.1875 7.4375 7 11 C5 13.9375 5 13.9375 2 16 C-1.71077676 16.52081077 -4.00345726 16.43439043 -7.4375 14.9375 C-9.76643994 12.04961448 -9.27050795 9.58423038 -9 6 C-11.31 5.67 -13.62 5.34 -16 5 C-11.39817376 -0.06200886 -6.61770653 -0.90449622 0 0 Z " fill="#EAE9E1" transform="translate(518,42)"/>
</svg>
